<svg xmlns="http://www.w3.org/2000/svg" xmlns:xlink="http://www.w3.org/1999/xlink" width="180.077" height="535.899" viewBox="0 0 180.077 535.899">
  <defs>
    <clipPath id="clip-path">
      <rect id="Rectangle_16" data-name="Rectangle 16" width="159.688" height="455.089" fill="none"/>
    </clipPath>
    <clipPath id="clip-path-2">
      <rect id="Rectangle_31" data-name="Rectangle 31" width="154.069" height="122.598" fill="none"/>
    </clipPath>
    <clipPath id="clip-path-3">
      <rect id="Rectangle_30" data-name="Rectangle 30" width="56.58" height="33.683" fill="none"/>
    </clipPath>
    <clipPath id="clip-path-4">
      <rect id="Rectangle_32" data-name="Rectangle 32" width="52.241" height="45.601" fill="none"/>
    </clipPath>
  </defs>
  <g transform="translate(-294.99 -691.912)">
    <g id="Artwork_13" data-name="Artwork 13" transform="translate(394.844 1000.267)">
      <g id="Artwork_13-2" data-name="Artwork 13" transform="translate(-79.844 -227.544)" clip-path="url(#clip-path)">
        <path id="Path_403" data-name="Path 403" d="M107.288,166.088H117.85a2.437,2.437,0,0,0,0-4.8H107.288a2.437,2.437,0,1,0,0,4.8" transform="translate(-27.296 -42.149)" fill="#db5c30"/>
        <path id="Path_404" data-name="Path 404" d="M92.964,53.4A63.964,63.964,0,1,1,29,117.364,63.964,63.964,0,0,1,92.964,53.4" transform="translate(-7.58 -13.958)" fill="#f68351"/>
        <path id="Path_405" data-name="Path 405" d="M69.438,130.4a7.238,7.238,0,1,1-7.238,7.238,7.238,7.238,0,0,1,7.238-7.238" transform="translate(-16.258 -34.085)" fill="#3b1a0e"/>
        <path id="Path_406" data-name="Path 406" d="M151.238,130.4A7.238,7.238,0,1,1,144,137.638a7.238,7.238,0,0,1,7.238-7.238" transform="translate(-37.64 -34.085)" fill="#3b1a0e"/>
        <path id="Path_407" data-name="Path 407" d="M77.608,121.186a2.437,2.437,0,0,1-3.25-.074,8.494,8.494,0,0,0-5.687-2.511,10.755,10.755,0,0,0-6.5,2.733,2.377,2.377,0,0,1-3.324-3.4l.3-.3a15.294,15.294,0,0,1,9.528-3.841c4.136,0,6.278,1.329,9.085,3.841a2.364,2.364,0,0,1,.074,3.4l-.222.148Z" transform="translate(-15.195 -29.746)" fill="#d8271a"/>
        <path id="Path_408" data-name="Path 408" d="M159.408,121.186a2.437,2.437,0,0,1-3.25-.074,8.494,8.494,0,0,0-5.687-2.511,10.755,10.755,0,0,0-6.5,2.733,2.377,2.377,0,0,1-3.324-3.4l.3-.3a15.478,15.478,0,0,1,9.528-3.841c4.062,0,6.278,1.329,9.085,3.841a2.364,2.364,0,0,1,.074,3.4l-.222.148Z" transform="translate(-36.577 -29.746)" fill="#d8271a"/>
        <path id="Path_409" data-name="Path 409" d="M109.119,195.357A27.181,27.181,0,0,1,92.87,189.67a2.364,2.364,0,0,1-.443-3.324l.222-.222h0a2.437,2.437,0,0,1,3.176-.222c3.915,2.954,14.477,8.937,26.442-.074a2.364,2.364,0,0,1,3.25.369h0a2.437,2.437,0,0,1-.222,3.4h-.148a26.413,26.413,0,0,1-16.028,5.687" transform="translate(-24.031 -48.447)" fill="#95331c"/>
        <path id="Path_410" data-name="Path 410" d="M110.019,155.164a1.994,1.994,0,0,1,3.4,0l1.4,2.437,1.4,2.437a1.994,1.994,0,0,1-1.7,2.954h-5.613a1.994,1.994,0,0,1-1.7-2.954l1.4-2.437Z" transform="translate(-27.96 -40.31)" fill="#db5c30"/>
        <path id="Path_411" data-name="Path 411" d="M62.224,133.907s-6.648,2.216-9.824-2.807c0,0,2.733,7.312,6.648,8.42s3.176-5.613,3.176-5.613" transform="translate(-13.697 -34.268)" fill="#3b1a0e"/>
        <path id="Path_412" data-name="Path 412" d="M159.577,133.907s8.2,2.216,12.039-2.807c0,0-3.324,7.312-8.125,8.42s-3.915-5.613-3.915-5.613" transform="translate(-41.695 -34.268)" fill="#3b1a0e"/>
        <path id="Path_413" data-name="Path 413" d="M93.138,53.4a64,64,0,1,1-.074,0" transform="translate(-7.606 -13.958)" fill="#f68351"/>
        <path id="Path_414" data-name="Path 414" d="M69.538,130.4a7.238,7.238,0,1,1-7.238,7.238,7.238,7.238,0,0,1,7.238-7.238" transform="translate(-16.284 -34.085)" fill="#3b1a0e"/>
        <path id="Path_415" data-name="Path 415" d="M151.338,130.4a7.238,7.238,0,1,1-7.238,7.238,7.238,7.238,0,0,1,7.238-7.238" transform="translate(-37.666 -34.085)" fill="#3b1a0e"/>
        <path id="Path_416" data-name="Path 416" d="M77.708,121.186a2.437,2.437,0,0,1-3.25-.074,8.494,8.494,0,0,0-5.687-2.511,10.755,10.755,0,0,0-6.5,2.733,2.377,2.377,0,0,1-3.324-3.4l.3-.3a15.113,15.113,0,0,1,9.528-3.841c4.136,0,6.278,1.329,9.085,3.841a2.364,2.364,0,0,1,.074,3.4l-.222.148Z" transform="translate(-15.221 -29.746)" fill="#d8271a"/>
        <path id="Path_417" data-name="Path 417" d="M159.508,121.186a2.437,2.437,0,0,1-3.25-.074,8.494,8.494,0,0,0-5.687-2.511,10.755,10.755,0,0,0-6.5,2.733,2.377,2.377,0,1,1-3.324-3.4l.3-.3a15.113,15.113,0,0,1,9.528-3.841c4.136,0,6.278,1.329,9.085,3.841a2.364,2.364,0,0,1,.074,3.4l-.222.148Z" transform="translate(-36.603 -29.746)" fill="#d8271a"/>
        <path id="Path_418" data-name="Path 418" d="M107.387,165.488h10.562a2.437,2.437,0,1,0,0-4.8H107.387a2.437,2.437,0,0,0,0,4.8" transform="translate(-27.543 -41.992)" fill="#db5c30"/>
        <path id="Path_419" data-name="Path 419" d="M109.319,195.357A27.181,27.181,0,0,1,93.07,189.67a2.364,2.364,0,0,1-.443-3.324l.222-.222h0a2.437,2.437,0,0,1,3.176-.222c3.915,2.954,14.477,8.937,26.442-.074a2.364,2.364,0,0,1,3.25.369h0a2.437,2.437,0,0,1-.222,3.4h-.222a26.413,26.413,0,0,1-16.028,5.687" transform="translate(-24.083 -48.447)" fill="#95331c"/>
        <path id="Path_420" data-name="Path 420" d="M96.2,213.345V235.8h25.63v-26Z" transform="translate(-25.145 -54.839)" fill="#f68351"/>
        <path id="Path_421" data-name="Path 421" d="M67.275,236.3a28.658,28.658,0,0,0-8.568,1.182c-7.608,2.29-16.323,7.165-19.647,17.653C32.634,275.3,7,327.887,2.5,362.749S-2.45,407.14,17.493,406.475c9.9-.369,8.716-60.714,22.9-77.924,0,0-1.92,55.839,4.949,153.631.443,6.5-3.176,15.437-9.824,22.823-11.892,13.3,20.9,15.954,36.044,4.727,11.67-8.716-3.1-121.871,10.414-123.5,12.852,1.625-1.182,114.78,9.9,123.5,14.329,11.3,45.425,8.568,34.124-4.727-6.278-7.386-9.75-16.323-9.307-22.823,6.574-97.718,4.727-153.631,4.727-153.631,13.443,17.136,12.261,77.554,21.715,77.924,18.908.665,18.391-9.38,14.181-43.726S128.8,275.3,122.745,255.207a24.891,24.891,0,0,0-11.892-14.772,29.027,29.027,0,0,0-14.181-3.767Z" transform="translate(0.013 -61.765)" fill="#f68351"/>
        <path id="Path_422" data-name="Path 422" d="M92.964,53.4A63.964,63.964,0,1,1,29,117.364,63.964,63.964,0,0,1,92.964,53.4" transform="translate(-7.58 -13.958)" fill="#f68351"/>
        <path id="Path_423" data-name="Path 423" d="M72.338,130.4a7.238,7.238,0,1,1-7.238,7.238,7.238,7.238,0,0,1,7.238-7.238" transform="translate(-17.016 -34.085)" fill="#3b1a0e"/>
        <path id="Path_424" data-name="Path 424" d="M154.138,130.4a7.238,7.238,0,1,1-7.238,7.238,7.238,7.238,0,0,1,7.238-7.238" transform="translate(-38.398 -34.085)" fill="#3b1a0e"/>
        <path id="Path_425" data-name="Path 425" d="M80.508,121.186a2.437,2.437,0,0,1-3.25-.074,8.494,8.494,0,0,0-5.687-2.511,10.755,10.755,0,0,0-6.5,2.733,2.377,2.377,0,0,1-3.324-3.4l.3-.3a15.113,15.113,0,0,1,9.528-3.841c4.136,0,6.278,1.329,9.085,3.841a2.364,2.364,0,0,1,.074,3.4l-.222.148Z" transform="translate(-15.953 -29.746)" fill="#1e3c2c"/>
        <path id="Path_426" data-name="Path 426" d="M162.308,121.186a2.437,2.437,0,0,1-3.25-.074,8.494,8.494,0,0,0-5.687-2.511,10.755,10.755,0,0,0-6.5,2.733,2.377,2.377,0,1,1-3.324-3.4l.3-.3a15.294,15.294,0,0,1,9.528-3.841c4.136,0,6.278,1.329,9.085,3.841a2.363,2.363,0,0,1,.074,3.4l-.222.148Z" transform="translate(-37.335 -29.746)" fill="#1e3c2c"/>
        <path id="Path_427" data-name="Path 427" d="M112.219,155.164a1.994,1.994,0,0,1,3.4,0l1.4,2.437,1.4,2.437a1.994,1.994,0,0,1-1.7,2.954h-5.613a1.994,1.994,0,0,1-1.7-2.954l1.4-2.437Z" transform="translate(-28.535 -40.31)" fill="#db5c30"/>
        <path id="Path_428" data-name="Path 428" d="M109.719,193.957A27.181,27.181,0,0,1,93.47,188.27a2.364,2.364,0,0,1-.443-3.324l.222-.222h0a2.437,2.437,0,0,1,3.176-.222c3.915,2.954,14.477,8.937,26.442-.074a2.364,2.364,0,0,1,3.25.369h0a2.437,2.437,0,0,1-.222,3.4h-.148a26.413,26.413,0,0,1-16.028,5.687" transform="translate(-24.188 -48.081)" fill="#95331c"/>
        <path id="Path_429" data-name="Path 429" d="M72.638,130.4a7.238,7.238,0,1,1-7.238,7.238,7.238,7.238,0,0,1,7.238-7.238" transform="translate(-17.095 -34.085)" fill="#3b1a0e"/>
        <path id="Path_430" data-name="Path 430" d="M154.438,130.4a7.238,7.238,0,1,1-7.238,7.238,7.238,7.238,0,0,1,7.238-7.238" transform="translate(-38.476 -34.085)" fill="#3b1a0e"/>
        <path id="Path_431" data-name="Path 431" d="M68.231,236.05s-.739,24.67,15.142,25.7,15.511-25.408,15.511-25.408,7.534-1.7,18.17,6.352c16.619,12.556,39.959,64.924,39.959,64.924L128.649,341.3l-4.136-7.829s.222,11.522,4.062,37.448l-91.071.812s1.92-20.533,3.25-38.26l-5.466,10.488L7,307.621s22.675-75.412,61.231-71.572" transform="translate(-1.83 -61.663)" fill="#482080"/>
        <path id="Path_432" data-name="Path 432" d="M147.482,37.3h4.21s-9.528-26.368-39.663-26.368c0,0-.96-2.364,6.2-1.92,0,0-6.943-4.579-10.341-2.511,0,0,.3-4.8,2.364-6.5-4.432,1.034-14.7,3.471-16.84,8.42,0,0-7.165-6.648-10.119.443,0,0-14.107-10.193-31.317-.222,0,0,5.17-.222,6.13,1.7,0,0-31.686,13.738-32.13,34.567,0,0-23.045,28.954-.886,66.918,1.034-29.1,9.6-64.85,36.266-74.452,31.465-12.409,67.8,5.17,83.537,37.226,5.761,10.562,7.312,23.266,8.051,36.192,4.21-6.426,12.63-22.085,6.426-37.669,0,0,1.477-2.216,3.545,1.847s.591-27.624-15.511-37.669" transform="translate(-4.044 0)" fill="#1e3c2c"/>
        <path id="Path_433" data-name="Path 433" d="M64.766,49.184C38.1,58.786,29.534,94.535,28.5,123.636l2.29,3.693s7.165-10.414,6.574-23.562c0,0,2.954,3.324,2.364,9.971,0,0,15.289-9.159,22.011-22.9,0,0-1.182,12.926-7.755,18.1,0,0,13.886,1.477,20.829-8.125,0,0,2.216,6.278-2.364,9.38,0,0,17.284-6.574,16.914-28.806,0,0,8.716,23.34,3.25,30.652s9.011-10.341,10.636-19.5.3,14.551-4.506,19.5,18.391-9.307,25.482-25.63c0,0,1.847,12.187-4.506,18.835,0,0,13.369-5.1,13.369-16.545,0,0-.222,14.255,5.244,19.13,0,0,1.33-9.454,3.915-8.716,0,0,9.824,17.505,12.039,26.442,0,0,.886-1.108,2.216-3.028-.812-12.926-2.364-25.63-8.051-36.192-15.88-31.982-52.22-49.561-83.685-37.152" transform="translate(-7.45 -11.81)" fill="#1e3c2c"/>
        <path id="Path_434" data-name="Path 434" d="M66.218,539.791c8.125.443,16.249.443,24.448.369.3-36.34-3.693-89.446,5.54-90.554,8.789,1.108,5.023,54.066,5.244,90.406h29.766C134.909,482.7,135.721,440.374,135.8,416H54.4c.074,24.3.886,66.4,4.8,123.274l7.017.517" transform="translate(-14.219 -108.737)" fill="#ace1fa"/>
      </g>
    </g>
    <g id="Artwork_10" data-name="Artwork 10" transform="translate(398.033 753.211)">
      <g id="Group_33" data-name="Group 33" transform="translate(-77.034 -61.299)" clip-path="url(#clip-path-2)">
        <path id="Path_719" data-name="Path 719" d="M129.484,74.191a24.852,24.852,0,0,0,23.032-15.126,25.12,25.12,0,0,0-4.927-27.224,24.751,24.751,0,0,0-26.853-5.988,27.647,27.647,0,0,0-29.231-5.588,36.776,36.776,0,0,0-66.932,2.724,25.643,25.643,0,0,0,1.25,51.2" transform="translate(-0.272 -0.008)" fill="#ace1fa"/>
        <path id="Path_720" data-name="Path 720" d="M32.3,151.706a7.349,7.349,0,0,1-3.407,6.944,7.253,7.253,0,0,1-7.7,0,7.349,7.349,0,0,1-3.407-6.944c0-4.051,7.29-16.206,7.29-16.206s7.29,12.154,7.29,16.206" transform="translate(-5.426 -40.85)" fill="#ace1fa"/>
        <path id="Path_721" data-name="Path 721" d="M191.2,131.906a7.349,7.349,0,0,1-3.407,6.944,7.253,7.253,0,0,1-7.7,0,7.349,7.349,0,0,1-3.407-6.944c0-4.051,7.29-16.206,7.29-16.206s7.29,12.154,7.29,16.206" transform="translate(-53.999 -34.881)" fill="#ace1fa"/>
        <path id="Path_722" data-name="Path 722" d="M128.9,163.476a5,5,0,1,1-10,0c0-2.794,5-11.176,5-11.176s5,8.382,5,11.176" transform="translate(-36.346 -45.915)" fill="#ace1fa"/>
        <path id="Path_723" data-name="Path 723" d="M83.7,138.076a5,5,0,1,1-10,0c0-2.794,5-11.176,5-11.176s5,8.382,5,11.176" transform="translate(-22.529 -38.258)" fill="#ace1fa"/>
      </g>
    </g>
    <g id="Artwork_43" data-name="Artwork 43" transform="translate(395.287 1016.69)">
      <g id="Group_31" data-name="Group 31" transform="translate(-28.29 -16.841)" clip-path="url(#clip-path-3)">
        <path id="Path_700" data-name="Path 700" d="M24.5,0H9.612a5,5,0,0,1-4.88,4.2H4.3V29.217h0a4.942,4.942,0,0,1,4.818,4.447H24.251a8.277,8.277,0,0,0,1.3-4.447l.432-24.4A7.968,7.968,0,0,0,24.5,0" transform="translate(-1.644 0)" fill="#e50019"/>
        <path id="Path_701" data-name="Path 701" d="M36.383,3.212A8.4,8.4,0,0,0,35.827,0H15.011a8.462,8.462,0,0,0-.618,3.212,219.957,219.957,0,0,0,1.174,25.016,10.192,10.192,0,0,0,2.285,5.436H35.518a6.98,6.98,0,0,0,2.1-5.5A219.959,219.959,0,0,1,36.383,3.212" transform="translate(-5.498 0)" fill="#e82727"/>
        <path id="Path_702" data-name="Path 702" d="M47.4,2.656A8.462,8.462,0,0,0,47.094,0H25.907a8.709,8.709,0,0,0-.494,2.656,194.45,194.45,0,0,0,1.3,31.008H48.761A194.387,194.387,0,0,1,47.4,2.656" transform="translate(-9.662)" fill="#fe0"/>
        <path id="Path_703" data-name="Path 703" d="M58.145,2.656A8.586,8.586,0,0,0,57.712,0H36.525a8.648,8.648,0,0,0-.432,2.656Q35.97,17.11,37.2,31.44a8.956,8.956,0,0,0,.494,2.224H59.133a8.524,8.524,0,0,0,.062-2.224Q57.959,17.048,58.083,2.656" transform="translate(-13.795)" fill="#39a95e"/>
        <path id="Path_704" data-name="Path 704" d="M59.515,33.387a3.953,3.953,0,0,0,.432,1.73H70.139a3.953,3.953,0,0,0,.432-1.73c0-8.277-.309-16.616-.679-24.893a5.32,5.32,0,0,0-5.5-4.694c-3.027.062-5.621,2.038-5.5,4.694.371,8.277.679,16.616.679,24.893" transform="translate(-22.516 -1.452)" fill="#482080"/>
        <path id="Path_705" data-name="Path 705" d="M53.009,35.192H63.015a3.212,3.212,0,0,0,.432-1.977,182.652,182.652,0,0,1-.679-24.522c.124-2.471-2.594-4.756-5.5-4.694s-5.436,2.162-5.559,4.756a182.65,182.65,0,0,0,.679,24.522,5,5,0,0,0,.618,1.977" transform="translate(-19.716 -1.528)" fill="#0063b0"/>
        <path id="Path_706" data-name="Path 706" d="M0,9.018V24.708a9.018,9.018,0,0,0,9.018,8.956H47.562a9.018,9.018,0,0,0,9.018-8.957V9.018A9.018,9.018,0,0,0,47.562,0H9.018A9.018,9.018,0,0,0,0,9.018M46.944,27.3c-10.13,1.668-22.978,3.027-31.193.556S9.883,14.145,9.7,8.215h0c0-.556.618-.988,1.359-1.05q17.6-.247,35.208.556c.741.062,1.3.432,1.3.988.185,6.98.309,10.624.494,17.6a1.178,1.178,0,0,1-1.05.988" fill="#fff"/>
      </g>
    </g>
    <g id="o5YWvq" transform="translate(321.111 1108.801)">
      <g id="Group_34" data-name="Group 34" transform="translate(-26.121 -22.8)" clip-path="url(#clip-path-4)">
        <path id="Path_724" data-name="Path 724" d="M15.844,47.178,4.8,23.212a3.075,3.075,0,0,0,2.863.879,10.152,10.152,0,0,0,1.87-.762l5.2-2.461q3.857-1.641,7.6-3.516L28.7,14.363l1.461-.7L34.135,11.9l1.227-.586,2.571-1.172,1.636-.762a5.026,5.026,0,0,1,3.156-.82,4.154,4.154,0,0,1,2.688,2.52c.76,1.758,1.636,3.516,2.454,5.274l-5.2,2.461a3.741,3.741,0,0,0-1.344,1,4.966,4.966,0,0,0-.351,5.8,4.726,4.726,0,0,0,5.96,1.582l4.909-2.227,2.045,4.571c-.058.117-.175.234-.175.293-.117,1.758-1.227,2.7-2.746,3.4L21.1,47.119c-1.695.762-3.272,1.289-4.967.059h-.292" transform="translate(-1.995 -3.523)" fill="#bb5e2f"/>
        <path id="Path_725" data-name="Path 725" d="M61.742,44.5a3.412,3.412,0,0,1-1.87,4.688L48.535,54.462,29.076,63.427c-1.87.879-3.506.879-5.025-.645l-.351-.7h.292c1.695,1.231,3.272.7,4.967-.059L58.82,48.192c1.519-.7,2.63-1.582,2.746-3.4a.5.5,0,0,1,.175-.293" transform="translate(-9.851 -18.424)" fill="#8b461f"/>
        <path id="Path_726" data-name="Path 726" d="M3.7,25.321c-.058-2.227,1.227-3.457,3.156-4.278,2.98-1.289,5.96-2.7,8.941-4.043l-.467.82L9.075,26.844a10.21,10.21,0,0,1-1.87.762,3.092,3.092,0,0,1-2.863-.879L3.7,25.321" transform="translate(-1.537 -7.038)" fill="#8b461f"/>
        <path id="Path_727" data-name="Path 727" d="M22.127,3.573l-.877-.352L13.011.35C11.082-.295,10.79-.178,10.089,1.7L9.68,2.811C8.92,4.8,8.92,4.8,6.758,4.627L2.434,4.452C.681,4.334.272,4.627.1,6.268v.469c-.175,1.875,4.09,10.606,4.85,13.888A2.623,2.623,0,0,0,6,20.507l.409-.117.409-.176c-.058-1.289-2.8-9.61-2.746-10.548.234-2.637.351-2.7,3.039-2.285.351.059.7.117.584.527s-.175.7-.643.7H6.641c-.935-.234-1.227.293-1.286,1.113s2.162,7.559,2.63,9.669l1.4-.7c1.11-.469,2.162-.879,3.214-1.406.058-3.926-1.11-11.368-.292-13.477a.7.7,0,0,1,.935-.527l4.441,1.582a.626.626,0,1,1-.409,1.172l-1.87-.586C13.42,4.8,13.361,4.8,12.718,6.678s.7,6.563,1.227,9.844l.117-.117a3.383,3.383,0,0,1,1.812-.586c.643-2.52.993-5.743,2.454-5.977a2.169,2.169,0,0,1,.643-1c2.221-2.285,5.142-2.52,7.889-.527l5.844-1L22.127,3.573" transform="translate(-0.038 0.002)" fill="#0fa198"/>
        <path id="Path_728" data-name="Path 728" d="M21.178,19.515l1.286-.7C22,15.53,20.886,10.08,21.237,8.967s.7-1.875,2.688-1.231l1.87.586c.351.117.76.059.877-.352a.645.645,0,0,0-.409-.879L21.821,5.568a.7.7,0,0,0-.935.527c-.818,2.11.292,9.493.292,13.477" transform="translate(-8.556 -2.287)" fill="#6ec1b2"/>
        <path id="Path_729" data-name="Path 729" d="M39.732,13.244c-2.746-1.992-5.61-1.758-7.889.527a2.169,2.169,0,0,0-.643,1c2.863-.41,5.668-.938,8.473-1.524" transform="translate(-12.968 -4.923)" fill="#6ec1b2"/>
        <path id="Path_730" data-name="Path 730" d="M9.429,25.282l.584-.293.818-.41c-.467-2.051-2.8-9.083-2.746-9.786S8.436,13.5,9.37,13.68H9.78c.526,0,.584-.352.643-.7s-.234-.469-.584-.527C7.15,11.98,7.033,12.1,6.8,14.734c-.058.879,2.571,9.258,2.63,10.606" transform="translate(-2.826 -5.066)" fill="#6ec1b2"/>
        <path id="Path_731" data-name="Path 731" d="M12.9,20.09l6.253-9.024.467-.82,4.909-6.915c1.11-1.582,1.461-1.7,3.1-.586l.935.645c1.753,1.231,1.753,1.231,3.331-.117l2.221-1.817C35.4.4,35.924.4,36.975,1.631l.292.352L41.3,6.847,38.67,8.019,36.917,5.968c-1.636-2.051-1.812-2.051-3.681-.176-.234.234-.526.469-.175.762s.526.469.935.176l.292-.234c.643-.7,1.11-.469,1.636.176L37.5,8.663,33.528,10.48c-2.1-1.7-4.324-3.164-6.545-4.688a.7.7,0,0,0-1.052.117L23.3,9.659a.646.646,0,0,0,.175.938c.351.293.7.059.935-.234l1.11-1.524c1.227-1.641,1.227-1.7,2.8-.527a25.937,25.937,0,0,1,3.74,2.813L25.7,14.113a2.1,2.1,0,0,0-1.052-.469c-3.1-.645-5.493.82-6.545,3.985L12.9,20.09" transform="translate(-5.362 -0.284)" fill="#10ada3"/>
        <path id="Path_732" data-name="Path 732" d="M58.674,6.663,54.7,1.8,57.563.452a3.385,3.385,0,0,1,4.558,1.582c.526,1,.935,2.051,1.4,3.047-1.169-.293-2.162.352-3.156.82l-1.636.762" transform="translate(-22.736 -0.042)" fill="#8b461f"/>
        <path id="Path_733" data-name="Path 733" d="M39.373,14.675a34.676,34.676,0,0,0-3.74-2.813c-1.227-.938-1.636-1.113-2.8.527l-1.11,1.524a.662.662,0,0,1-.935.234.646.646,0,0,1-.175-.938l2.63-3.75a.7.7,0,0,1,1.052-.176c2.221,1.524,4.441,2.988,6.545,4.688l-1.461.645" transform="translate(-12.668 -3.775)" fill="#6ec1b2"/>
        <path id="Path_734" data-name="Path 734" d="M21.8,26.679c1.052-3.164,3.448-4.629,6.545-3.985a2.1,2.1,0,0,1,1.052.469q-3.74,1.875-7.6,3.516" transform="translate(-9.061 -9.334)" fill="#6ec1b2"/>
        <path id="Path_735" data-name="Path 735" d="M51.744,11.334,50.166,9.4c-.467-.645-.993-.879-1.636-.176l-.292.234c-.409.293-.643.059-.935-.176s-.058-.527.175-.762c1.87-1.875,2.045-1.875,3.681.176l1.812,2.11-1.227.586" transform="translate(-19.605 -2.955)" fill="#6ec1b2"/>
        <path id="Path_736" data-name="Path 736" d="M74.662,22c-.526-.117-.993-.469-1.519-.176l-5.2,2.461a3.741,3.741,0,0,0-1.344,1,4.966,4.966,0,0,0-.351,5.8,4.726,4.726,0,0,0,5.96,1.582l4.909-2.227a1.935,1.935,0,0,0,.818-1.465L74.662,22" transform="translate(-27.212 -8.987)" fill="#8b461f"/>
      </g>
    </g>
  </g>
</svg>
