<?xml version="1.0" encoding="utf-8"?>
<!-- Generator: Adobe Illustrator 24.2.3, SVG Export Plug-In . SVG Version: 6.00 Build 0)  -->
<svg version="1.1" id="Layer_1" xmlns="http://www.w3.org/2000/svg" xmlns:xlink="http://www.w3.org/1999/xlink" x="0px" y="0px"
	 viewBox="0 0 387.2 650.6" style="enable-background:new 0 0 387.2 650.6;" xml:space="preserve">
<style type="text/css">
	.st0{fill:#662D91;}
	.st1{fill:#00B9B2;}
	.st2{fill:#FFFFFF;}
	.st3{fill:#E27442;}
	.st4{fill:#F79866;}
	.st5{fill:#4C2511;}
	.st6{fill:#E14026;}
	.st7{fill:#A74727;}
	.st8{fill:#DD5D92;}
	.st9{fill:#0CADA3;}
	.st10{fill:#232322;}
	.st11{fill:#333231;}
	.st12{fill:#F2AF20;}
</style>
<g>
	<path class="st0" d="M222.7,485.3L222.7,485.3c4.4,1.9,9.5-0.2,11.4-4.7l48.8-116.9c1.9-4.4-0.2-9.5-4.7-11.4h0
		c-4.4-1.9-9.5,0.2-11.4,4.7L218,473.9C216.2,478.3,218.3,483.4,222.7,485.3z"/>
	<path class="st1" d="M337.9,395l-132.1-55.1c-6.1-2.6-9-9.6-6.5-15.7L232,246c2.6-6.1,9.6-9,15.7-6.5l132.1,55.1
		c6.1,2.6,9,9.6,6.5,15.7l-32.6,78.2C351.1,394.7,344.1,397.6,337.9,395z"/>
	<g>
		<path class="st2" d="M281.6,284.6c0.8,0.4,1.7,0.5,2.6,0.5c0.8,0,1.7-0.2,2.5-0.5c1.6-0.7,2.7-1.5,3.1-2.6c0.4-0.9,0.4-1.9,0-3.1
			c-0.3-1-0.9-2.2-1.8-3.8c-0.5-0.8-0.8-1.4-0.9-1.8c0.8,0.3,1.4,0.5,1.9,0.5c0.9,0,1.7-0.4,2-1.1c0.2-0.5,0.4-1.5-0.4-2.5
			c-0.5-0.6-1.1-1-1.9-1.3c-1.5-0.6-2.8-0.7-4.1-0.2c-1.2,0.5-1.9,1.2-2.3,2c-0.6,1.5,0,3.7,2,7c1.2,1.9,1,2.6,1.1,2.6
			c0,0-0.2,0.2-1.1,0.3c-0.5,0-0.8,0-0.9-0.1c-0.2-0.1-0.2-0.2-0.3-0.3c-0.1-0.2-0.1-0.4,0-0.7c0.5-1.9-0.7-2.5-1-2.7
			c-0.4-0.2-1.1-0.3-1.9,0.2c-0.5,0.3-0.8,0.7-1.1,1.2c-0.1,0.2-0.2,0.4-0.3,0.6c-0.5,1.2-0.4,2.3,0.2,3.4
			C279.5,283.3,280.4,284.1,281.6,284.6z"/>
		<path class="st2" d="M298.7,277.6l1.3,0.6l-0.8,2.6c-1,3-1.7,5-2.2,6c-0.4,1-0.6,1.7-0.7,2.3c-0.1,0.9,0.4,1.7,1.2,2.1
			c0.2,0.1,0.5,0.2,0.7,0.2c0.5,0,1-0.2,1.4-0.6c0.3-0.3,0.6-0.8,1-1.7c0.3-0.7,0.8-2.2,1.6-4.4l1.7-4.8l1.6,0.6
			c1.3,0.5,2.1,0.7,2.7,0.7c1.3,0.1,1.9-0.6,2.2-1l0.2-0.4c0.2-0.6,0.4-1.7-1.4-2.7c-0.7-0.4-2.4-1.2-5.1-2.3
			c-2.7-1.1-4.4-1.8-5.2-2c-2-0.6-2.7,0.3-2.9,0.8c-0.1,0.1-0.1,0.2-0.1,0.4l0,0c-0.2,0.8,0,1.6,0.7,2.3
			C297,276.6,297.7,277.1,298.7,277.6z"/>
		<path class="st2" d="M309.7,289c-0.5,1.3-0.7,2.4-0.8,3.2c-0.1,0.9,0,1.8,0.4,2.6c0.5,1.4,1.3,2.4,2.4,2.8v0
			c0.7,0.3,1.7,0.4,3.1,0.4c0.1,0,0.1,0,0.2,0c3,0,5.3-1.9,6.9-5.8c0.9-2.1,1.1-4.1,0.6-5.9c-0.5-2-1.5-3.4-3.2-4
			c-1.1-0.5-2.3-0.5-3.6-0.1c-1.3,0.3-2.4,1-3.2,1.9c-0.8,0.9-1.6,2-2.2,3.5C310.1,287.8,309.9,288.3,309.7,289z M316.2,293.1
			c-0.1,0.2-0.4,0.3-0.7,0.4c-0.6,0.2-1.1,0.2-1.6,0c-0.5-0.2-0.6-0.4-0.6-0.6c0,0-0.2-0.6,0.7-2.6c0.9-2.2,1.7-3,2.2-3.3
			c0.8-0.5,1.2-0.4,1.4-0.3c0.2,0.1,0.5,0.3,0.7,0.9c0,0.1,0.2,0.8-0.7,3.3l-0.3,0.8C316.6,292.6,316.3,293,316.2,293.1z"/>
		<path class="st2" d="M322.4,302.1c0.2,0.1,0.5,0.1,0.7,0.1c0.6,0,1.2-0.3,1.8-1c0.2-0.3,0.6-0.9,1.4-2.9c0.6-1.4,0.9-2.1,1.1-2.3
			c0.1,0,0.2,0,0.4,0c1.3,0.2,2.4,0.1,3.4-0.4l0,0c1-0.4,1.9-1.2,2.6-2.3c0.3-0.5,0.6-0.9,0.7-1.2c0.3-0.6,0.4-1.7-0.3-3
			c-0.6-1.1-1.5-1.9-2.8-2.5c-0.9-0.4-1.8-0.5-2.7-0.4c-0.9,0.1-1.7,0.7-2.4,1.9c-0.5,0.8-1.3,2.6-2.5,5.5c-1.2,2.8-1.9,4.6-2.1,5.5
			C321,301.2,321.8,301.9,322.4,302.1z M329.8,291.2c0,0.1-0.2,0.3-0.5,0.4c0,0-0.1,0-0.1,0c0-0.1,0-0.1,0.1-0.2
			c0.1-0.2,0.1-0.3,0.2-0.4c0.1,0,0.1,0,0.2,0.1C329.6,291.2,329.7,291.2,329.8,291.2z"/>
		<path class="st2" d="M247.9,307.3L247.9,307.3c0.6,0.3,1.4,0.4,2.4,0.4c0.5,0,1,0,1.6-0.1c1.4-0.2,3-0.5,3.5-1.7
			c0.7-1.6-0.1-2.5-0.9-2.9c-0.6-0.3-1.4-0.3-2.4,0c-1,0.2-1.8,0.1-2.6-0.2c-0.4-0.2-0.6-0.3-0.6-0.3h0c0,0-0.1-0.3-0.1-1.2
			c0-0.7,0.1-1.4,0.4-2.1c0.5-1.3,1.2-2.1,2.2-2.5c0.2-0.1,0.8-0.2,2.1,0.3l0.5,0.2c0.8,0.4,1.3,0.6,1.5,0.7c2.2,0.9,3,0,3.2-0.6
			c0.2-0.4,0.2-0.8,0.1-1.4c-0.1-0.7-0.6-1.3-1.4-1.9c-0.6-0.5-1.4-0.9-2.2-1.2c-1.4-0.6-2.6-0.8-3.7-0.7c-1.3,0.2-2.6,0.9-3.9,2
			c-1.2,1.1-2,2.4-2.7,3.9c-0.6,1.4-0.8,2.8-0.7,4.2C244.3,304.5,245.6,306.3,247.9,307.3z"/>
		<path class="st2" d="M255.9,310.9l5.1,2.1c2.2,0.9,3,1.1,3.4,1.2c0.3,0.1,0.5,0.1,0.7,0.1c1.2,0,1.7-0.8,1.8-1.1
			c0.8-1.9-2-3.2-3.3-3.9l-1.8-0.9l1.7-4.3c2.2-5.7,2.1-6.6,1.4-7.3c-0.2-0.2-0.4-0.3-0.6-0.4c-0.8-0.3-1.7-0.2-2.4,0.5
			c-0.2,0.2-0.5,0.5-2,4.1c-0.5,1.2-0.9,2.1-1.1,2.8L255.9,310.9z"/>
		<path class="st2" d="M270.6,316.2c0.2,0.1,0.4,0.1,0.7,0.1c0.5,0,1.2-0.3,1.9-1.3c0.4-0.6,1-1.8,1.8-3.7c0.3-0.6,0.7-1.5,1.2-2.7
			c0.6-1.5,1-2.4,1.1-2.9c0.2-0.6,0.3-1.2,0.2-1.8c-0.1-1.1-0.8-1.6-1.2-1.7c-0.3-0.1-0.8-0.2-1.3,0c-0.7,0.2-1.1,0.3-3.6,6.4
			c-1,2.3-1.6,3.9-1.8,4.7C269.2,315.3,270.1,316,270.6,316.2z"/>
		<path class="st2" d="M289,307c-0.1,0.1-0.1,0.1-0.2,0.1c0,0,0,0,0-0.1c0-1.8-0.8-2.5-1.4-2.8c-0.6-0.3-1.8-0.4-3.2,1.3
			c-0.1,0.2-0.8,1.1-4.8,5.9c-3.2,3.9-3.9,5-4.1,5.5c-0.2,0.5-0.1,1,0,1.2c0.2,0.6,0.7,0.9,1,1c1.3,0.5,2.7-0.1,7-5.1l2.1-2.5
			c0.3,0.8,0.7,1.4,1.4,1.7c0.5,0.2,1,0.2,1.5,0c0.4-0.1,0.8-0.3,1.2-0.6c0,0.7,0,1.5-0.1,2.7c-0.5,7.5,0.1,9.1,1.4,9.7l0.4,0.1l0,0
			l0.3,0.1l0.3-0.1c0.7-0.1,1.2-0.5,1.4-1.1c0.1-0.3,0.3-0.7,0.6-7.8c0.2-3.6,0.2-6,0.2-7.3c-0.1-1.4-0.3-2.8-1.4-3.3l0,0
			c-0.4-0.2-1-0.3-1.9,0.2C290.1,306.2,289.6,306.5,289,307z"/>
		<path class="st2" d="M296.3,328.1c1.4,0.6,2.4-1.1,3-2.1l0.5-0.8l1.6,0.6c0.5,0.2,0.9,0.3,1.2,0.4c0,0,0,0.1,0,0.1
			c-0.3,0.8-0.5,1.6-0.4,2.5c0.1,1.1,0.6,1.8,1.3,2.1c0.2,0.1,0.4,0.1,0.7,0.1c0.5,0,1-0.2,1.5-0.7c0.2-0.3,0.4-0.6,0.6-1.1
			c0.6-1.4,1.2-3.5,1.7-6.4c0.8-4.2,0.7-5.2,0.5-5.8c-0.2-0.5-0.5-1-1-1.5c-0.5-0.5-1-0.8-1.5-1.1c-1-0.4-1.9-0.4-2.6-0.1
			c-0.4,0.2-1.1,0.6-2.7,2c-1,0.9-1.8,1.9-2.4,2.8c-0.6,0.9-1.2,2-1.8,3.5c-0.3,0.8-0.6,1.5-0.8,2.1c-0.2,0.7-0.3,1.2-0.3,1.6
			C295.2,327.4,295.9,327.9,296.3,328.1z M302.7,320.6c0.5-0.7,1.1-1.3,1.5-1.6c0,0,0.1,0,0.1,0c0,0.3-0.2,0.9-0.4,1.8l-0.2,0.7
			l-1.3-0.6L302.7,320.6z"/>
		<path class="st2" d="M328.2,324.5l0.2-0.4c0.2-0.6,0.4-1.7-1.4-2.7c-0.7-0.4-2.4-1.2-5.1-2.3c-2.7-1.1-4.4-1.8-5.2-2
			c-2-0.6-2.7,0.3-2.9,0.9c0,0.1-0.1,0.2-0.1,0.3l0,0c-0.2,0.8,0.1,1.6,0.7,2.3c0.4,0.4,1.1,0.8,2.2,1.3l1.3,0.6l-0.8,2.6
			c-1,3-1.7,5-2.2,6c-0.4,1-0.6,1.7-0.7,2.3c-0.1,0.9,0.4,1.7,1.2,2.1c0.2,0.1,0.5,0.2,0.7,0.2c0.5,0,1-0.2,1.4-0.6
			c0.3-0.3,0.6-0.8,1-1.7c0.3-0.7,0.8-2.2,1.6-4.4l1.7-4.8l1.6,0.6c1.3,0.5,2.1,0.7,2.7,0.7C327.3,325.6,327.9,324.9,328.2,324.5z"
			/>
		<path class="st2" d="M341.7,329.6c-0.3-0.4-0.8-0.7-1.5-1c-1.3-0.5-2.9-0.8-4.6-0.7c-3.9,0.1-6.8,2.1-8.3,5.8
			c-0.6,1.4-0.8,2.3-0.9,3c0,0.8,0.2,1.6,0.8,2.8c0.5,1,1,1.8,1.6,2.3c0.6,0.5,1.4,1,2.5,1.4c1.6,0.7,3.1,1,4.4,1.2
			c0.2,0,0.4,0,0.6,0c1.5,0,2.4-0.5,2.8-1.4c0.4-1,0-2.1-1.1-2.5c-0.2-0.1-0.6-0.2-1.8-0.5c-1-0.2-2-0.5-2.8-0.9
			c-1.1-0.5-1.9-1-2.3-1.5c-0.2-0.2-0.3-0.4-0.2-0.7c0.4,0.1,1,0.4,2.2,0.8c1.9,0.8,2.6,1,3,1.1c1.3,0.3,2-0.4,2.3-1
			c0.1-0.2,0.1-0.4,0.2-0.6c0.1-0.9-0.2-1.7-0.9-2.2c-0.3-0.2-0.9-0.6-2.6-1.5c-0.5-0.3-0.9-0.5-1.2-0.6c0.2-0.1,0.5-0.1,0.8-0.2
			c1.1-0.2,2.1-0.1,3.1,0.2c2.1,0.6,3.5,0.3,4.2-0.8l0.2-0.3C342.3,331,342.2,330.2,341.7,329.6z"/>
		<path class="st2" d="M246,331.5c0.2-0.1,0.8-0.2,2.1,0.3l0.5,0.2c0.8,0.4,1.3,0.6,1.4,0.7c2.2,0.9,3,0,3.2-0.6
			c0.2-0.4,0.2-0.8,0.1-1.4c-0.1-0.7-0.6-1.3-1.4-1.9l0,0c-0.6-0.5-1.4-0.9-2.2-1.2c-1.4-0.6-2.6-0.8-3.7-0.7
			c-1.3,0.2-2.6,0.9-3.9,2c-1.2,1.1-2,2.4-2.7,3.9c-0.6,1.4-0.8,2.8-0.7,4.1c0.2,2.4,1.5,4.2,3.7,5.2c0.6,0.3,1.4,0.4,2.4,0.4
			c0.5,0,1,0,1.6-0.1c1.4-0.2,3-0.5,3.5-1.7c0.7-1.6-0.1-2.5-0.9-2.9c-0.6-0.3-1.4-0.3-2.4,0c-1,0.2-1.8,0.1-2.6-0.2
			c-0.5-0.2-0.6-0.3-0.6-0.3c0-0.1-0.1-0.3-0.1-1.2c0-0.7,0.1-1.4,0.4-2.1C244.3,332.7,245.1,331.9,246,331.5z"/>
		<path class="st2" d="M266.2,339c0.8-1.9,0.9-2.6,0.9-3c0-0.9-0.5-1.7-1.4-2.1h0c-1-0.4-1.9-0.2-2.6,0.6c-0.2,0.3-0.6,0.9-1.5,2.9
			l-0.8,1.9l-2.4-1l0.7-1.9c0.4-1.1,0.6-2.1,0.7-3c0.1-1.3-0.3-2.2-1.1-2.6c-0.5-0.2-1.4-0.3-2.2,0.7c-0.3,0.3-0.6,0.8-1.9,4
			c-0.5,1.2-0.8,2-1.1,2.7c-1.3,3.5-1.6,4.5-1.7,5c-0.4,1.7,0.4,2.5,0.8,2.7c0.1,0.1,0.3,0.2,0.5,0.3c0.6,0.3,1.6,0.2,2.2-0.7
			c0.2-0.2,0.5-0.7,1-2.1l0.5-1.2l2.4,1l-0.4,1.2c-0.3,1-1.3,3.6,0.6,4.4c0.2,0.1,0.4,0.1,0.7,0.1c0.6,0,1.4-0.4,2.1-1.6
			c0.5-0.8,1.3-2.4,2.5-5.1C265.5,340.4,266,339.3,266.2,339z"/>
		<path class="st2" d="M277.6,341c-0.2-0.5-0.5-1-1-1.5v0c-0.5-0.5-1-0.8-1.5-1.1c-1-0.4-1.9-0.4-2.6-0.1c-0.4,0.2-1.1,0.5-2.7,2
			c-1,0.9-1.8,1.9-2.4,2.8c-0.6,0.9-1.2,2-1.8,3.5c-0.3,0.8-0.6,1.5-0.8,2.1c-0.2,0.7-0.3,1.2-0.3,1.6c-0.1,1.3,0.6,1.7,0.9,1.9
			c1.4,0.6,2.4-1.1,3-2.1l0.5-0.8l1.6,0.6c0.5,0.2,0.9,0.3,1.2,0.4c0,0,0,0.1,0,0.1c-0.3,0.8-0.5,1.6-0.4,2.5
			c0.1,1.1,0.6,1.8,1.3,2.1c0.2,0.1,0.4,0.1,0.7,0.1c0.5,0,1-0.2,1.5-0.7c0.2-0.3,0.4-0.6,0.6-1.1c0.6-1.4,1.2-3.5,1.7-6.4
			C278,342.5,277.8,341.6,277.6,341z M271.8,344.7c0.5-0.7,1.1-1.3,1.5-1.6c0,0,0.1,0,0.1,0c0,0.3-0.2,0.9-0.4,1.8l-0.2,0.7
			l-1.3-0.6L271.8,344.7z"/>
		<path class="st2" d="M291.7,344.2c-0.3-0.1-1.5-0.5-2.5,1.1c-0.4,0.6-0.8,1.6-1.5,3.3l-0.1,0.3c-0.2-0.8-0.3-1.7-0.5-2.8
			c-0.7-3.5-1.2-4.2-2-4.6c-1.1-0.4-2,0.2-2.9,1.8c-0.5,1-1.3,2.7-2.3,5.2c-1.2,2.9-2,4.8-2.2,5.7c-0.6,2.1,0.3,2.8,0.9,3.1
			c0.4,0.2,1.6,0.4,2.6-1.2c0.4-0.6,1-1.9,1.8-3.9l0.5-1.2c0.3,1.2,0.4,2.6,0.5,4.2c0.1,1.4,0.2,2.4,0.3,3.1c0.1,0.5,0.3,1.6,1.2,2
			c0.2,0.1,0.4,0.1,0.6,0.1c1.3,0,2.2-1.8,3.3-4.5c0.2-0.5,0.7-1.7,1.4-3.4c1-2.6,1.6-4.3,1.8-5.2
			C293,345.6,292.7,344.6,291.7,344.2z"/>
		<path class="st2" d="M298.7,354.5c1.3-0.5,2.6-0.4,3.9,0.2c0.2,0.1,0.3,0.1,0.4,0.2l0.5,0.2c0.6,0.2,1.1,0.3,1.6,0.3
			c0.7-0.1,1.3-0.5,1.5-1.2c0.8-1.9-1.7-3.1-2.7-3.6c-0.2-0.1-0.5-0.2-0.9-0.4c-1.4-0.6-3-0.8-4.5-0.5c-1.6,0.3-2.8,0.9-3.8,1.7
			c-1,0.8-1.8,2-2.4,3.5c-0.9,2.1-1,4-0.5,5.7c0.5,1.8,1.7,3.1,3.5,3.8c0.6,0.3,1.3,0.4,2.1,0.5c0.8,0.1,1.2,0.2,1.3,0.3
			c0.2,0.5,0.5,0.8,0.9,0.9c0.2,0.1,0.5,0.1,0.7,0.1c1.4,0,2.2-1.9,2.5-2.7c0.1-0.2,0.2-0.6,0.4-1.2c0.4-1.3,0.5-2,0.3-2.7
			c-0.2-0.6-0.8-1.1-1.8-1.7c-0.3-0.2-0.7-0.4-1.3-0.6c-2.4-1-3.3-0.2-3.6,0.6c-0.2,0.5-0.2,1,0,1.6c0,0.1,0,0.1,0.1,0.2
			c-0.5-0.3-0.7-0.4-0.7-0.5c0,0-0.2-0.3-0.3-1.2c0-0.6,0-1.2,0.3-1.7C296.6,355.6,297.5,354.9,298.7,354.5z"/>
		<path class="st2" d="M319.2,356.9c-1.3-0.5-2.8-0.8-4.6-0.7c-3.9,0.1-6.8,2.1-8.3,5.8c-0.6,1.4-0.8,2.3-0.9,3
			c0,0.8,0.2,1.6,0.8,2.8c0.5,1,1,1.8,1.6,2.3c0.6,0.5,1.4,1,2.5,1.4c1.6,0.7,3.1,1,4.4,1.2c0.2,0,0.4,0,0.6,0
			c1.5,0,2.4-0.5,2.8-1.4c0.2-0.5,0.2-1.1,0-1.5c-0.1-0.3-0.4-0.7-1.1-1c-0.2-0.1-0.6-0.2-1.8-0.5c-1-0.2-2-0.5-2.8-0.9
			c-1.1-0.5-1.9-1-2.3-1.5c-0.2-0.2-0.3-0.4-0.2-0.7c0.4,0.1,1,0.4,2.2,0.8c1.9,0.8,2.6,1,3,1.1c1.3,0.3,2-0.4,2.3-1
			c0.1-0.2,0.1-0.4,0.2-0.6c0.1-0.9-0.2-1.7-0.9-2.2c-0.3-0.2-0.9-0.6-2.6-1.5c-0.5-0.3-0.9-0.5-1.2-0.6c0.2-0.1,0.5-0.1,0.8-0.2
			c1.1-0.2,2.1-0.1,3.1,0.2c0.8,0.2,3.1,0.9,4.2-0.8l0.2-0.3C321.2,359.4,321.6,357.9,319.2,356.9z"/>
	</g>
</g>
<g id="Group_39" transform="translate(-664.139 -52.171)">
	<path id="Path_62" class="st3" d="M789.3,254.5h14.3c1.8,0,3.2-1.5,3.2-3.2s-1.5-3.2-3.2-3.2h-14.3c-1.8,0-3.2,1.5-3.2,3.2
		S787.5,254.5,789.3,254.5L789.3,254.5z"/>
</g>
<g id="Group_61" transform="translate(-878.757 -60.012)">
	<circle id="Ellipse_43" class="st4" cx="1011.3" cy="234.4" r="86.6"/>
	<circle id="Ellipse_44" class="st5" cx="967.6" cy="234.6" r="9.8"/>
	<circle id="Ellipse_45" class="st5" cx="1049.4" cy="234.6" r="9.8"/>
	<g id="Group_58">
		<path id="Path_82" class="st6" d="M980.1,218.2c-1.3,1.1-3.1,1-4.4-0.1c-2.1-2.1-4.8-3.3-7.7-3.4c-3.6,0-6.9,2.1-8.8,3.7
			c-1.2,1-2.9,1-4.1-0.1l0,0c-1.4-1.2-1.5-3.2-0.4-4.6c0.1-0.1,0.3-0.3,0.4-0.4c2.8-2.3,7.3-5.2,12.9-5.2c4.4,0,8.5,1.8,12.3,5.2
			c1.3,1.2,1.3,3.3,0.1,4.6C980.3,218.1,980.2,218.2,980.1,218.2L980.1,218.2z"/>
	</g>
	<g id="Group_59">
		<path id="Path_83" class="st6" d="M1061.9,218.2c-1.3,1.1-3.1,1-4.4-0.1c-2.1-2.1-4.8-3.3-7.7-3.4c-3.6,0-6.9,2.1-8.8,3.7
			c-1.2,1-2.9,1-4.1-0.1l0,0c-1.4-1.2-1.5-3.2-0.4-4.6c0.1-0.1,0.3-0.3,0.4-0.4c2.8-2.3,7.3-5.2,12.9-5.2c4.4,0,8.5,1.8,12.3,5.2
			c1.3,1.2,1.3,3.3,0.1,4.6C1062.1,218.1,1062,218.2,1061.9,218.2L1061.9,218.2z"/>
	</g>
	<g id="Group_60">
		<path id="Path_84" class="st7" d="M1010.9,293.4c-8-0.1-15.7-2.8-22-7.7c-1.4-1.1-1.7-3.1-0.6-4.5c0.1-0.1,0.2-0.2,0.3-0.3l0,0
			c1.1-1.2,3-1.3,4.3-0.3c5.3,4,19.6,12.1,35.8-0.1c1.4-1,3.3-0.8,4.4,0.5l0,0c1.2,1.4,1,3.4-0.3,4.6c-0.1,0-0.1,0.1-0.2,0.1
			C1025,291.3,1017.6,293.4,1010.9,293.4z"/>
	</g>
	<path id="Path_85" class="st3" d="M1006.7,249.9c0.7-1.3,2.4-1.7,3.6-1c0.4,0.2,0.7,0.6,1,1l1.9,3.3l1.9,3.3c0.7,1.3,0.3,2.9-1,3.6
		c-0.4,0.2-0.9,0.4-1.3,0.4h-7.6c-1.5,0-2.7-1.2-2.7-2.7c0-0.5,0.1-0.9,0.4-1.3l1.9-3.3L1006.7,249.9z"/>
	<path id="Path_86" class="st5" d="M961.3,229.4c0,0-9,3-13.3-3.8c0,0,3.7,9.9,9,11.4S961.3,229.4,961.3,229.4z"/>
	<path id="Path_87" class="st5" d="M1055.2,229.4c0,0,11.1,3,16.3-3.8c0,0-4.5,9.9-11,11.4S1055.2,229.4,1055.2,229.4z"/>
</g>
<g id="Group_130" transform="translate(-598.715 -57.399)">
	<path id="Path_180" class="st8" d="M836.4,291.2c11.6-77.3-18.2-189.8-103-169.6v-0.3c-0.9,0.2-1.8,0.3-2.7,0.5
		c-0.9-0.2-1.8-0.3-2.7-0.5v0.3c-84.7-20.1-114.5,92.3-102.9,169.6c2.8,18.4,12.6,34.6,26.2,47.3c4.3,4,2.5,8.2-13.5,15.1
		c0,0,24.1,12.9,44.5-14.5c0,0,14.2,5.6,4.9,11.2c0,0,6.8,6.2,15.4-3.9c0,0,3.1,12.3,10.5,14.5c0,0,3.4-2,17.5-11.4
		c14.2,9.3,17.5,11.4,17.5,11.4c7.4-2.2,10.5-14.5,10.5-14.5c8.7,10.1,15.5,3.9,15.5,3.9c-9.3-5.6,5-11.2,5-11.2
		c20.4,27.4,44.5,14.5,44.5,14.5c-16-7-17.9-11.1-13.5-15.1C823.7,325.8,833.6,309.6,836.4,291.2z"/>
</g>
<g id="Group_16" transform="translate(-664.297 -52.85)">
	<circle id="Ellipse_11" class="st4" cx="797" cy="227.3" r="86.6"/>
	<circle id="Ellipse_12" class="st5" cx="753.3" cy="227.4" r="9.8"/>
	<circle id="Ellipse_13" class="st5" cx="835.1" cy="227.4" r="9.8"/>
	<g id="Group_12">
		<path id="Path_26" class="st6" d="M765.8,211.1c-1.3,1.1-3.1,1-4.4-0.1c-2.1-2.1-4.8-3.3-7.7-3.4c-3.6,0-6.9,2.1-8.8,3.7
			c-1.2,1-2.9,1-4.1-0.1l0,0c-1.4-1.2-1.5-3.2-0.4-4.6c0.1-0.1,0.3-0.3,0.4-0.4c2.7-2.3,7.3-5.2,12.9-5.2c4.4,0,8.5,1.8,12.3,5.2
			c1.3,1.2,1.3,3.3,0.1,4.6C766,210.9,765.9,211,765.8,211.1L765.8,211.1z"/>
	</g>
	<g id="Group_13">
		<path id="Path_27" class="st6" d="M847.6,211.1c-1.3,1.1-3.1,1-4.4-0.1c-2.1-2.1-4.8-3.3-7.7-3.4c-3.6,0-6.9,2.1-8.8,3.7
			c-1.2,1-2.9,1-4.1-0.1l0,0c-1.4-1.2-1.5-3.2-0.4-4.6c0.1-0.1,0.3-0.3,0.4-0.4c2.7-2.3,7.3-5.2,12.9-5.2c4.4,0,8.5,1.8,12.3,5.2
			c1.3,1.2,1.3,3.3,0.1,4.6C847.8,210.9,847.7,211,847.6,211.1L847.6,211.1z"/>
	</g>
	<g id="Group_14">
		<path id="Path_28" class="st3" d="M789.3,254.5h14.3c1.8,0,3.2-1.5,3.2-3.2s-1.5-3.2-3.2-3.2h-14.3c-1.8,0-3.2,1.5-3.2,3.2
			S787.5,254.5,789.3,254.5L789.3,254.5z"/>
	</g>
	<g id="Group_15">
		<path id="Path_29" class="st7" d="M796.6,286.2c-8-0.1-15.7-2.8-22-7.7c-1.4-1.1-1.7-3.1-0.6-4.5c0.1-0.1,0.2-0.2,0.3-0.3l0,0
			c1.1-1.2,3-1.3,4.3-0.3c5.3,4,19.6,12.1,35.8-0.1c1.4-1,3.3-0.8,4.4,0.5l0,0c1.2,1.4,1,3.4-0.3,4.6c-0.1,0-0.1,0.1-0.2,0.1
			C810.7,284.1,803.3,286.2,796.6,286.2z"/>
	</g>
	<path id="Path_30" class="st4" d="M777.4,301.9v30.3h34.7v-35.1L777.4,301.9z"/>
	<path id="Path_31" class="st4" d="M772.2,323.6c-3.9-0.1-7.9,0.5-11.6,1.6c-10.3,3.1-22.1,9.7-26.6,23.9
		c-8.6,27.2-43.3,98.4-49.4,145.6c-6,46.5-6.7,60.1,20.3,59.2c13.4-0.5,11.8-82.2,31-105.5c0,0-2.6,75.6,6.7,208
		c0.6,8.8-4.3,20.9-13.3,30.9c-16.1,18,28.3,21.6,48.8,6.4c15.8-11.8-4.2-165,14.1-167.2c17.4,2.2-1.6,155.4,13.4,167.2
		c19.4,15.3,61.5,11.6,46.2-6.4c-8.5-10-13.2-22.2-12.6-30.9c8.9-132.4,6.4-208,6.4-208c18.2,23.2,16.6,105,29.4,105.5
		c25.6,0.9,24.9-12.7,19.2-59.2c-5.8-47.2-38.6-118.4-46.8-145.6c-2.5-8.5-8.3-15.7-16.1-20c-5.9-3.3-12.5-5.1-19.2-5.1L772.2,323.6
		z"/>
</g>
<path id="Path_208" class="st8" d="M66.7,431.2h115c0,0,8.6,78.9,30.6,109.1H45C45,540.3,62.8,514.3,66.7,431.2z"/>
<g id="Group_81" transform="translate(433.333 -477.8)">
	<circle id="Ellipse_68" class="st4" cx="-300.8" cy="652.2" r="86.6"/>
	<circle id="Ellipse_69" class="st5" cx="-341.5" cy="652.4" r="9.8"/>
	<circle id="Ellipse_70" class="st5" cx="-259.7" cy="652.4" r="9.8"/>
	<g id="Group_78">
		<path id="Path_112" class="st8" d="M-329,636c-1.3,1.1-3.1,1-4.4-0.1c-2.1-2.1-4.8-3.3-7.7-3.4c-3.6,0-6.9,2.1-8.8,3.7
			c-1.2,1-2.9,1-4.1-0.1l0,0c-1.4-1.2-1.5-3.2-0.4-4.6c0.1-0.1,0.3-0.3,0.4-0.4c2.7-2.3,7.3-5.2,12.9-5.2c4.4,0,8.5,1.8,12.3,5.2
			c1.3,1.2,1.3,3.3,0.1,4.6C-328.8,635.9-328.9,636-329,636L-329,636z"/>
	</g>
	<g id="Group_79">
		<path id="Path_113" class="st8" d="M-247.2,636c-1.3,1.1-3.1,1-4.4-0.1c-2.1-2.1-4.8-3.3-7.7-3.4c-3.6,0-6.9,2.1-8.8,3.7
			c-1.2,1-2.9,1-4.1-0.1l0,0c-1.4-1.2-1.5-3.2-0.4-4.6c0.1-0.1,0.3-0.3,0.4-0.4c2.8-2.3,7.3-5.2,12.9-5.2c4.4,0,8.5,1.8,12.3,5.2
			c1.3,1.2,1.3,3.3,0.1,4.6C-247,635.9-247.1,636-247.2,636L-247.2,636z"/>
	</g>
	<path id="Path_114" class="st3" d="M-303.1,667.7c0.7-1.3,2.4-1.7,3.6-1c0.4,0.2,0.7,0.6,1,1l1.9,3.3l1.9,3.3
		c0.7,1.3,0.3,2.9-1,3.6c-0.4,0.2-0.9,0.4-1.3,0.4h-7.6c-1.5,0-2.7-1.2-2.7-2.7c0-0.5,0.1-0.9,0.4-1.3l1.9-3.3L-303.1,667.7z"/>
	<circle id="Ellipse_71" class="st6" cx="-305.5" cy="700.5" r="6.5"/>
	<circle id="Ellipse_72" class="st6" cx="-295.2" cy="700.5" r="6.5"/>
	<ellipse id="Ellipse_73" class="st6" cx="-300.2" cy="708.8" rx="11.5" ry="8.4"/>
	<g id="Group_80">
		<path id="Path_115" class="st7" d="M-300.7,709.8c-8-0.1-15.7-2.8-22-7.7c-1.4-1.1-1.7-3.1-0.6-4.5c0.1-0.1,0.2-0.2,0.3-0.3l0,0
			c1.1-1.2,3-1.3,4.3-0.3c5.3,4,19.6,12.1,35.8-0.1c1.4-1,3.3-0.8,4.4,0.5l0,0c1.2,1.4,1,3.4-0.3,4.6c-0.1,0-0.1,0.1-0.2,0.1
			C-286.5,707.7-293.9,709.8-300.7,709.8z"/>
	</g>
	<circle id="Ellipse_74" class="st5" cx="-341.2" cy="652.4" r="9.8"/>
	<circle id="Ellipse_75" class="st5" cx="-259.4" cy="652.4" r="9.8"/>
	<path id="Path_116" class="st5" d="M-347.5,647.2c0,0-9,3-13.3-3.8c0,0,3.7,9.9,9,11.4S-347.5,647.2-347.5,647.2z"/>
	<path id="Path_117" class="st5" d="M-253.6,647.2c0,0,11.1,3,16.3-3.8c0,0-4.5,9.9-11,11.4S-253.6,647.2-253.6,647.2z"/>
</g>
<path id="Path_181" class="st8" d="M219.7,145.7c-2.3,0.3-0.2-1.6-2.5-1.3c0.6-1.3-3.6-0.6-4.1-2c-7.5-17.6-13-41.6-33-48.6
	c-13.2-6.6-12.7-21.1-33.9-19.1c-26.2-17.7-116,42-87.9,51.6c-2.9,3.9-6.3,7.3-10.1,10.4c0-40.1,44.5-75.6,83-70.1
	c14.4,8.8,35.9,6.1,45.7,21.6c1.5,2.5,5.4,0.2,3.9-2.3c-6.9-11.8-21.2-14.5-33.3-17.8c-25-14.2-53-3.4-74.6,12.7
	c-18.2,13.8-30.3,36.4-29.1,59.5c-2.5,2,1.8,15,4.4,13.4c20.5-4.8,23.1-31.9,43.5-34.7c0,0-5.8,8.5-8.9,10.1
	c16.8,2.1,30.4-11.9,39-24.6c12.9,18.4,38.4,22.6,57.8,31.8c-2.9-3.7-8.2-11.1-7.8-17c11.9,10.8,17.6,31.7,33.3,35.9
	c20.5,5.4,9.3,0.9,14.7-4.9C222.6,150.2,222.6,145.7,219.7,145.7z"/>
<g id="Group_154" transform="translate(-372.581 -339.009)">
	<path id="Path_203" class="st9" d="M479.4,609.5c0,0-1,33.4,20.5,34.8c21.5,1.4,21-34.4,21-34.4s10.2-2.3,24.6,8.6
		c22.5,17,54.1,87.9,54.1,87.9L561.2,752l-5.7-10.6c0,0,0.3,15.6,5.5,50.7l-123.4,1.1c0,0,2.6-27.8,4.4-51.8l-7.4,14.2l-38.3-49.2
		C396.5,706.4,427.2,604.3,479.4,609.5z"/>
</g>
<g>
	<path class="st2" d="M106.5,348l-1.6-1.4c-1-0.9-1.1-2.3-0.3-3.3l0.3-0.4c1.4-1.8,2.1-3.4,2.1-4.9c0-1.2-0.5-2.2-1.4-3
		c-1.6-1.3-4.5-1.9-8.7-1.9c-1.4,0-2.7,0.1-3.8,0.4l-0.2,0c-2,0.4-3.4,2.2-3.5,4.2l-0.3,9.2c0,1.3-0.1,2.9-0.1,5.1c0,1.7,0,3,0.1,4
		c0.1,1.1,0.3,2,0.6,2.8c0.3,0.9,0.7,1.5,1,1.9c0.4,0.5,1.1,0.8,1.9,1.1c0.8,0.3,1.7,0.4,2.5,0.5c0.8,0,1.9,0.1,3.4,0.1
		c3.2,0,5.7-0.6,7.4-1.7c1.7-1.2,2.9-3.1,3.6-5.8c0.2-0.5,0.3-1.1,0.3-1.8c0-0.8-0.3-1.6-0.8-2.3C108.7,350,107.8,349.1,106.5,348z
		 M101.3,338.7c0,0.4-0.3,1.5-2.5,3.9c-2.2,2.4-3.3,2.7-3.7,2.7c-0.1,0-0.9-0.2-0.9-3.8c0-2.8,0.3-3.3,0.4-3.4l0,0
		c0,0,0.4-0.4,2.8-0.4c0.9,0,1.9,0.1,2.7,0.3C101.1,338.4,101.3,338.6,101.3,338.7L101.3,338.7C101.3,338.6,101.3,338.6,101.3,338.7
		z M95.8,350.2c0.4-0.1,1-0.2,1.7-0.2c1.1,0,2.3,0.2,3.5,0.5c1.2,0.3,2.1,0.7,2.7,1.2c0.8,0.6,1.2,1.3,1.2,2.1c0,1-0.6,1.9-1.9,2.8
		c-1.3,0.9-2.9,1.4-4.6,1.4c-0.9,0-1.9-0.2-2.8-0.5c-1-0.4-1.5-1.6-1.5-3.6c0-1,0.2-1.8,0.5-2.6C94.9,350.7,95.2,350.3,95.8,350.2z"
		/>
	<path class="st2" d="M126.1,357.2l-3.6-0.2c-1.4-0.1-2.6-1.2-2.6-2.7l-0.3-8.8c-0.4-12.2-1.3-12.6-1.8-12.8
		c-0.1-0.1-0.3-0.1-0.6-0.1c-0.6,0-1.5,0.3-2.1,1.5c-0.2,0.4-0.4,1.8-0.4,8.4c0,2.6,0,4.6,0.1,6.1l0.2,10.5c0,1.5,1.3,2.7,2.7,2.7
		h6.3c3.5,0,5.8-0.1,7-0.3c1.4-0.3,2.1-0.8,2.1-1.7C133.2,358.2,131.1,357.4,126.1,357.2z"/>
	<path class="st2" d="M162.4,347.7L162.4,347.7c-2.1-5.7-3.6-9.6-4.6-11.7c-1-2.3-2-3.4-3.1-3.5c-0.7-0.1-1.4,0.3-2,1
		c-0.4,0.5-1,1.3-1.7,2.4c-1.1,1.8-1.6,2-1.6,2c0,0-0.5-0.3-1.1-2c-0.7-1.7-1.6-2.6-2.9-2.6c-1.4,0-2.3,1-2.8,3.1
		c-0.1,0.6-0.9,3.2-3.8,12.8c-1.9,6.3-2.8,9.8-2.8,11.1c0,0.1,0,0.6,0.3,0.9c0.4,0.4,0.8,0.6,1.2,0.6c1.2,0,2.8-0.9,6.4-11.9
		l2.4-7.8l0.9,1.1c1.3,1.5,2.2,2.2,3,2.2c0.6,0,1.1-0.2,1.6-0.7c1-0.7,1.8-2.1,2.3-3.9c0-0.1,0-0.2,0.1-0.2c0.5,0.9,1.4,2.9,3,7.4
		c4.3,12.6,6,13.6,7.3,13.6h0.4l0.2-0.1c0.1,0,0.1,0,0.2-0.1c1.1-0.4,1.2-1.3,1.2-1.6C166.5,359.5,166.2,358.1,162.4,347.7z"/>
</g>
<g>
	<path class="st10" d="M11.7,42.2c-0.7,1-1.7,1-2.7,1.1c-2.3,1.1-4.7,2.2-7,3.3c-2.8,1.3-2.5,2.9,0,4.2c1.9,1,4,1.6,5.9,2.4
		c9.6,2.3,19.1,4.5,28.7,6.8c5.2,0.7,10.3,1.7,15.3,3.4c0.6,0.1,1.3,0.1,1.9,0.2c0.4,0.1,0.7,0.3,1.1,0.4c0.6,0.1,1.2,0.2,1.7,0.2
		c1.6,1.8,0.9,4,1,6.1c0.3,3.2,0.5,6.3,0.8,9.5c0.2,2.1,0.4,4.3,0.5,6.4c0.1,1.3,0.2,2.5,0.3,3.8c0.2,1.7,0.6,3.4,0.6,5
		c-0.3,5.7,1.9,9.8,7.1,12.2c3.7,1,7.4,2.1,11.2,3c13.1,2.8,26.5,2.2,39.8,2.5c4.3-0.4,8.7-0.9,13-1.3c-0.6-7.3-0.8-14.7-1.9-21.9
		c-0.7-4.7,1.1-7,5.1-8.2c9-2.8,17.4-7,26.3-10.2c6.7-2.4,13-5.8,20.1-6.9c0.8-3-1-4.1-3.4-5.1c-13.1-5.9-26.3-12-39.3-18.1
		c-1.6-0.8-4.1-0.7-4.5-3.3c-0.4-0.1-0.9-0.4-1.2-0.2c-3.3,2-7.9,1.4-10.2-1.2c-2-2.4-1.4-6.1,1.1-6.9c5.1-1.7,10.2,0.9,12.1,6.2
		c15.8,7.2,31.5,14.4,47.3,21.5c1.9,0.8,2.3,2.3,2.7,4c3.6-1.3,7.2-2.5,10.8-3.8c0-1.3,0.1-2.5,0.1-3.8c-0.3-0.6,0-0.8,0.6-0.7
		c1.5-0.5,3-1.1,4.5-1.6c4-2.3,8.4-3.8,12.8-5.3c0.6-0.2,1.2-0.4,1.8-0.5c0.4-0.6,1-1,1.8-0.9c8.8-3.5,17.5-7,26.3-10.5
		c2.7-1.6,7.5-2.2,7.1-5.6c-0.3-2.4-5.2-2-8.1-2.7c-9.1-2.2-18.3-4.2-27.4-6.3c-8.9-2-17.8-3.9-26.7-5.9C170.3,9.3,152,5.7,134,0.9
		c-8.6-1.8-16.9-1-25,2.3c-4.8,2.2-9.5,4.4-14.6,5.8c-2.8,1.6-5.7,2.9-8.9,3.6c-8.7,3.9-17.5,7.6-26.5,10.6
		c-8.5,4.1-17.4,7.5-26.3,10.6l0,0c-0.3,0.1-0.5,0.3-0.8,0.4C25.2,37.1,18.6,40,11.7,42.2z"/>
	<path class="st11" d="M144,110.5c13-2.3,26.1-4.3,38.7-8.6c0.1-0.2,0.3-0.3,0.5-0.3c0-12.6-1.6-25-2.8-37.5
		c-7.1,1.1-13.4,4.5-20.1,6.9c-8.8,3.2-17.3,7.5-26.3,10.2c-4,1.2-5.8,3.5-5.1,8.2c1.1,7.2,1.3,14.6,1.9,21.9
		C135.2,111.1,139.6,110.8,144,110.5z"/>
	<path class="st12" d="M180.4,64.1c1.2,12.5,2.8,24.9,2.8,37.5c0.5,1.8,1.4,3.6-0.6,5c-1.6,1.1-1.3,2.8-1.1,4.2
		c1.2,7.9,0.1,15.8,0.7,23.7c0.2,0.4,0.3,0.8,0.5,1.2c4.1-0.3,8.1-0.7,12.2-1c0.2-0.4,0.4-0.8,0.7-1.2c-1.2-8-3.5-15.8-3.6-23.9
		c0-1.4,0-2.9-1.7-4c-2.8-1.9-2.8-4.4-0.6-6.9c-1.8,0-1.8-1.4-1.9-2.6c-0.9-11.7-1.8-23.5-2.7-35.2c-0.4-1.7-0.8-3.1-2.7-4
		c-15.8-7.1-31.6-14.3-47.3-21.5c-0.5,0.8-0.7,1.8-1.8,2.2c0.4,2.6,2.8,2.5,4.5,3.3C150.8,47,163.9,53,177,59
		C179.4,60,181.2,61.1,180.4,64.1z"/>
	<path class="st11" d="M185,60.9c0.9,11.7,1.8,23.5,2.7,35.2c0.1,1.2,0.1,2.6,1.9,2.6c9.7-3.8,9.4-11.7,8.3-20
		c-0.7-7.2-1.4-14.3-2.1-21.5C192.2,58.4,188.6,59.7,185,60.9z"/>
	<path class="st11" d="M133.2,37.6c1.1-0.3,1.3-1.3,1.8-2.2c-1.9-5.3-7-7.9-12.1-6.2c-2.6,0.8-3.2,4.6-1.1,6.9
		c2.3,2.7,6.9,3.2,10.2,1.2C132.3,37.2,132.8,37.5,133.2,37.6z"/>
</g>
</svg>
