<?xml version="1.0" encoding="utf-8"?>
<!-- Generator: Adobe Illustrator 24.2.1, SVG Export Plug-In . SVG Version: 6.00 Build 0)  -->
<svg version="1.1" id="Layer_1" xmlns="http://www.w3.org/2000/svg" xmlns:xlink="http://www.w3.org/1999/xlink" x="0px" y="0px"
	 viewBox="0 0 216.18 562.79" style="enable-background:new 0 0 216.18 562.79;" xml:space="preserve">
<style type="text/css">
	.st0{fill:#00B9B2;}
	.st1{fill:#2E3192;}
	.st2{fill:#00A79D;}
</style>
<g>
	<circle class="st0" cx="115.78" cy="86.64" r="86.64"/>
	<circle class="st1" cx="72.11" cy="86.8" r="9.79"/>
	<circle class="st1" cx="153.93" cy="86.8" r="9.79"/>
	<g>
		<path class="st2" d="M84.62,70.44c-1.27,1.08-3.12,0.97-4.36-0.15c-2.5-2.26-5.09-3.4-7.74-3.4c-3.63,0-6.86,2.09-8.8,3.7
			c-1.2,0.99-2.94,0.95-4.13-0.05l0,0c-1.54-1.31-1.54-3.69,0.02-4.97c2.75-2.27,7.35-5.17,12.91-5.17c4.39,0,8.5,1.75,12.26,5.23
			C86.19,66.92,86.08,69.2,84.62,70.44L84.62,70.44z"/>
	</g>
	<g>
		<path class="st2" d="M166.43,70.44c-1.27,1.08-3.12,0.97-4.36-0.15c-2.5-2.26-5.09-3.4-7.74-3.4c-3.63,0-6.86,2.09-8.8,3.7
			c-1.2,0.99-2.94,0.95-4.13-0.05l0,0c-1.54-1.31-1.54-3.69,0.02-4.97c2.75-2.27,7.35-5.17,12.91-5.17c4.39,0,8.5,1.75,12.26,5.23
			C168.01,66.92,167.9,69.2,166.43,70.44L166.43,70.44z"/>
	</g>
	<g>
		<path class="st2" d="M108.09,113.82c4.76,0,9.53,0,14.29,0c1.7,0,3.33-1.49,3.25-3.25c-0.08-1.76-1.43-3.25-3.25-3.25
			c-4.76,0-9.53,0-14.29,0c-1.7,0-3.33,1.49-3.25,3.25C104.92,112.33,106.27,113.82,108.09,113.82L108.09,113.82z"/>
	</g>
	<g>
		<path class="st2" d="M115.36,145.59c-9.05,0-16.86-3.74-21.96-7.66c-1.54-1.19-1.71-3.45-0.35-4.84l0.04-0.05
			c1.15-1.17,2.98-1.29,4.29-0.31c5.33,4,19.59,12.12,35.76-0.07c1.35-1.02,3.26-0.81,4.37,0.46l0.01,0.01c1.23,1.42,1,3.6-0.5,4.73
			C129.54,143.51,122.11,145.59,115.36,145.59z"/>
	</g>
	<polygon class="st0" points="96.17,161.28 96.17,191.61 130.89,191.61 130.89,156.49 	"/>
	<path class="st0" d="M91.06,182.99c-3.92-0.04-7.83,0.45-11.64,1.59c-10.27,3.09-22.09,9.72-26.6,23.93
		C44.2,235.72,9.5,306.93,3.41,354.15c-6,46.51-6.72,60.14,20.32,59.23c13.45-0.45,11.84-82.23,31.01-105.48
		c0,0-2.64,75.65,6.71,208c0.62,8.79-4.33,20.9-13.31,30.94C32,564.86,76.47,568.47,96.9,553.22c15.8-11.8-4.22-165.02,14.13-167.17
		c17.38,2.16-1.59,155.37,13.38,167.17c19.35,15.26,61.46,11.64,46.19-6.38c-8.51-10.04-13.2-22.15-12.61-30.94
		c8.86-132.35,6.35-208,6.35-208c18.15,23.25,16.63,105.02,29.37,105.48c25.61,0.91,24.93-12.72,19.25-59.23
		c-5.77-47.22-38.63-118.43-46.8-145.63c-2.96-9.85-9.25-16.06-16.07-19.97c-6.03-3.46-12.63-5.02-19.25-5.1L91.06,182.99z"/>
</g>
</svg>
