<?xml version="1.0" encoding="utf-8"?>
<!-- Generator: Adobe Illustrator 24.2.3, SVG Export Plug-In . SVG Version: 6.00 Build 0)  -->
<svg version="1.1" id="Layer_1" xmlns="http://www.w3.org/2000/svg" xmlns:xlink="http://www.w3.org/1999/xlink" x="0px" y="0px"
	 viewBox="0 0 128.7 117.3" style="enable-background:new 0 0 128.7 117.3;" xml:space="preserve">
<style type="text/css">
	.st0{fill:#FFFFFF;}
</style>
<g>
	<path class="st0" d="M21.7,86.2c0.8-4.9,1.4-8.6,2-12.3c0.4-2.8,1.4-5.2,4.7-5.5c2.9-0.2,4.1,1.9,5.1,4.2
		c5,12.5,10.5,24.8,17.1,36.5c1.9,3.5,1.4,6-1.3,7.5c-2.8,1.5-4.8,0.7-6.9-3.1c-3.9-7.4-7.7-14.9-11.6-22.6c-1.3,2.4-1.2,5-1.8,7.3
		c-0.5,1.8-1.6,2.9-3.4,3c-1.6,0.1-3.3,0.6-4.6-1.4c-1.9-2.9-4.4-5.4-7.1-8.6c0,2.9,0,4.9,0,7c-0.1,2.9-1.8,4.5-4.5,4.4
		c-2.7-0.1-4.6-1.5-4.6-4.4c-0.1-7.2,0-14.3,0-21.5c0-2.3,1-3.9,3.1-4.6c2.4-0.8,4.2,0.3,5.5,2.2C15.9,77.9,18.5,81.6,21.7,86.2z"/>
	<path class="st0" d="M61.5,39.4c0.1,3.3-0.2,6.6-2.1,9.6c-4.7,7.1-13.6,8.4-19.8,2.5c-6.4-6.1-9.2-13.7-8.3-22.5
		c0.6-5.8,6-10.7,12.9-12.1c4.7-1,10.1,1.7,13.2,6.9C60.2,28.5,61.7,33.7,61.5,39.4z M52.4,40c-0.6-3.7-0.9-7.2-2.5-10.4
		c-1-2.1-2.3-3.7-4.9-3.1c-2.6,0.6-4.5,2.1-4.5,4.8c0,5.3,1.6,10.2,5.9,13.7c2.2,1.8,4.3,1.2,5.3-1.6C52,42.3,52.2,41,52.4,40z"/>
	<path class="st0" d="M110.8,39.6c2.5-0.4,4.7-1.3,7.2-1.3c2.6,0,4.5,0.6,4.8,3.5c0.3,2.8-0.8,4.9-3.5,5.4c-3.5,0.6-6.7,1.9-10,3.1
		c-3.6,1.2-6-0.4-6.9-4.2c-1.1-4.8-0.7-9.8-0.8-14.7c-0.1-5.9-0.3-11.8-2.9-17.3c-1.5-3.3,0.6-6.4,4.2-6.6c4.1-0.2,8.3-0.1,12.5,0
		c3.1,0.1,4.5,1.9,4.5,4.9c0,3-1.7,4.3-4.6,4.3c-0.5,0-1-0.1-1.5,0c-1.6,0.3-4.2-1-3.9,2.4c0.3,2.7-0.2,5.9,4.3,5.3
		c1.4-0.2,2.8,0,4.1,0.5c2.1,0.9,3,2.4,3,4.7c-0.1,2.3-1.5,3.4-3.3,4.1c-0.7,0.3-1.5,0.2-2.2,0.3C110.4,34.1,110.4,34.1,110.8,39.6z
		"/>
	<path class="st0" d="M87.7,0c3.2-0.2,4.6,1.3,5.3,3.5c0.7,2.4-0.5,4.2-2.6,5.2c-1.8,0.9-3.9,1-5.9,1c-2.7,0-3.4,1.1-2.5,3.7
		c2.5,7.1,4.8,14.3,5.5,21.8c0.2,2,0.5,4,0.2,6c-0.4,3-2.5,4.8-5.5,4.5c-2.7-0.3-4.1-2.1-3.9-5c0.6-9.5-3-18.2-5.8-27
		c-0.6-1.8-1.5-2-3.1-1.8c-3,0.3-6,0.7-9,0.9c-2.9,0.2-4.5-1.4-4.8-4.2c-0.3-2.8,1.4-4.4,3.8-4.8C68.9,2.4,78.6,1.2,87.7,0z"/>
	<path class="st0" d="M12.6,43c1.3-6.3,2.4-11.5,3.4-16.8c0.5-3,1.9-4.6,5.1-4.2c3,0.4,4.6,2.7,4,6.1c-1.2,7.4-2.7,14.8-4,22.2
		c-0.7,3.8-1.3,7.7-2.1,11.5c-0.5,2.5-0.9,5.2-4.2,5.4c-3,0.2-4.6-1.5-5.5-4.2c-3.1-8.8-6.3-17.5-8.8-26.5c-1.2-4.5,0.2-6.9,3.9-7.2
		c2.7-0.2,4.2,1.1,4.9,3.7C10,36,10.6,39.2,12.6,43z"/>
	<path class="st0" d="M52.4,80.3c0.2-12.9,10.2-19.8,20.8-14.4c4.5,2.3,6.9,6,7.2,11.1c0.3,4.9-1.1,9.2-3.5,13.3
		c-3.1,5.2-8.7,7.6-14.2,6.2c-6.2-1.5-9.7-6-10.3-13.2C52.3,82.3,52.4,81.3,52.4,80.3z M61.4,81.5c0,0.5,0,1.6,0.3,2.7
		c0.5,1.8,1.5,3.2,3.5,3.4c1.9,0.2,3.1-0.8,3.9-2.4c0.4-0.8,0.9-1.5,1.2-2.4c1-2.6,2-5.3-0.2-7.8c-1.3-1.5-3.1-2.3-5.1-1.5
		C61.8,74.9,61.5,77.8,61.4,81.5z"/>
	<path class="st0" d="M101.4,67.2c1.9,0,3.8,0,5.7,0c2.6,0.1,3.9,1.8,4.1,4.1c0.3,2.3-0.9,4.6-3.3,4.8c-3.1,0.3-2.6,1.8-2.3,3.8
		c0.8,5.5,2.2,10.8,2,16.4c-0.3,7.7-5.1,12.7-12.8,13c-2.6,0.1-4.8-0.8-5.3-3.7c-0.5-3.1,0.9-5.1,4-5.8c4.7-1,5.4-2.1,4.7-6.8
		c-0.7-4.8-1.4-9.7-1.9-14.6c-0.2-1.6-0.7-2-2.1-2.4c-2.5-0.7-3.6-2.7-3.1-5.3c0.5-2.5,2.3-3.5,4.7-3.6
		C97.6,67.2,99.5,67.2,101.4,67.2z"/>
	<path class="st0" d="M128.7,73.9c0,4.4,0,8.8,0,13.2c0,3.1-1.3,5-4.6,5.2c-3.4,0.2-4.9-1.9-4.9-4.9c-0.1-8.8-0.1-17.6,0-26.4
		c0-3.2,1.8-5,4.9-5c3.2-0.1,4.7,2,4.7,5.1C128.7,65.3,128.7,69.6,128.7,73.9z"/>
</g>
</svg>
